<svg xmlns="http://www.w3.org/2000/svg" width="244.812" height="848.188" viewBox="0 0 2 424.094">
  <metadata><?xpacket begin="﻿" id="W5M0MpCehiHzreSzNTczkc9d"?>
<x:xmpmeta xmlns:x="adobe:ns:meta/" x:xmptk="Adobe XMP Core 5.6-c138 79.159824, 2016/09/14-01:09:01        ">
   <rdf:RDF xmlns:rdf="http://www.w3.org/1999/02/22-rdf-syntax-ns#">
      <rdf:Description rdf:about=""/>
   </rdf:RDF>
</x:xmpmeta>
<?xpacket end="w"?></metadata>
<defs>
    <style>

    </style>
  </defs>
  <symbol id="symbol_manhattan" x="19" y="114">
    <path id="manhattan" data-name="Manhattan" class="cls-1" d="M160,114v4c2.079,1.106,1.783,1.572,5,2,0.862-1.122-.114-0.129,1-1v-3c2.97-.271,11-2.26,12-1,4.522,3.123,2.685,7.327,4,14h1c0.262,1.655-.949,1.763-1,2v7h-1v7h-1c-0.459,4.2-.751,1.329-1,4v10h-1v6h-1c-2.509,9.18,1.67,18.525,2,26h2c-0.032,14.256,7.486,22.285,13,31q0.5,2,1,4l2,1q0.5,2,1,4l2,1v3l2,3v3l2,1v2c3.427,4.859,10.11,6.5,15,10,2.646,1.891,3.584,5.867,6,8,0.074,8.026-2.313,10.561-4,16q-0.5,5-1,10h1v5c-1.035,3.114-2.57,2.478-3,8,1.607,1.319,2.393,3.736,4,5l3,1q1,4.5,2,9c-1.8,1.277-.924.846-2,3h-1v9h-1v7h-1v7h-1v6c-1.522,5.436-3.554,11.895-5,17v35l9,16h2l1,2,3,1c2.144,2.96.752,7.015,2,11h1v4l2,1q0.5,10,1,20c-0.87,2.371-3.141,2.962-4,6-4.122,1.093-5.97,4.092-9,6-2.027,1.277-6.034,1.7-8,3l-2,3c-1.157.836-3.069,0.712-4,2v2l-2,1v5l-4,11c-2.027,3.018-6.631,4.244-9,7-8.625-.895-12.285-10.325-13-19h2c-0.722-3.971-2.864-6.822-4-10q-0.5-5.5-1-11h-1v-3l-2-3v-3l-2-2v-3c-0.112-.251-2.886-3.747-3-4v-3c-0.113-.254-2.886-3.745-3-4v-3c-0.113-.254-2.885-3.744-3-4v-3c-0.036-.08-1.943-1.9-2-2v-2l-2-1v-2h-1l-2-6h-1q-0.5-4-1-8h-1V382c0.747-2.588,3.2-6.46,2-11-2.683-10.157-1-26.049-1-38V262h1v-7h1c1.714-6.169.14-12.552,0-17h-2v-9h1v-3l2-1V204a75.606,75.606,0,0,0-7-17v-2l-2-1q-0.5-2-1-4h-1c-1.4-4.033,1.327-11.5,2-14,2.219-8.248-1.04-24.316,0-30q-1-8-2-16l2-1c1.025-2.2-.732-2.038,1-4C152.657,113.567,156.844,113.907,160,114ZM266,232c-0.015,4.218-.805,5.4-2,8l-2-1a8.073,8.073,0,0,0-2-3l2-5Zm-1,8,5,1v4h-3C266.326,242.287,265.72,242.7,265,240Zm-32,76c0.415,2,2.047,3.494,2,5h-1a36.3,36.3,0,0,1-2,5h-1v14h-1v4h2v2h-2c-1.206,6.676-2.828,14.117-3,22a4.328,4.328,0,0,0-2,2h-1v-2c-1.907-2.2-.241-3.82-1-7-0.69-2.893,2.586-19.035,4-24,2.269-7.969-1.73-15.154,3-20v-1h3ZM209,515q0.5,3,1,6c-0.32,1.082-12.259,16.648-13,17h-3c-1.426-2.66-2.026-4.223-2-9,2.027-2.4,2.386-9.592,3-13,2.347-.994,4.629-1.96,6-4A85.319,85.319,0,0,0,209,515Z" transform="translate(-147.594 -113.906)"/>
  </symbol>
  <symbol id="symbol_queens" x="101" y="156">
    <path id="queens" data-name="Queens" class="cls-1" d="M671,175c7.4,0.7,10.342,4.814,15,8h2l6,7,4,1c5.128,2.764,9.109,5.46,17,6v-1l-8-7v-7l-2-1c-2.746-4.7-4.016-8.554-4-16,2.3-.645,2.363-1.762,3-2,2.981-1.116,6.31,1.587,8,2l3-1c5.669,1.408,13.339,3.26,19,5h5c5.724,1.736,13.347,3.266,19,5h5v1h5v1h5v1h5a123.386,123.386,0,0,0,22,5c1.376,6,6.052,9.579,9,14v2c0.836,1.256,3.158,2.747,4,4v2l3,2v16c1.838,2.155,1.106,9.145,1,13-8.236,4.369-15.234,12.047-21,19-1.726,2.081-5.237,6.121-4,8,2.391,3.647,7.492,5.485,10,9v2l2,1q1,3,2,6l2,1q1,3,2,6l2,1q1,3,2,6l2,1q1,3,2,6l2,1c1.31,2.1,1.692,5.9,3,8l2,1q1,3,2,6l2,1q1,3,2,6l2,1q1,3,2,6l2,1v8h1v4h1v3l2,3v3c0.443,0.977,2.506,2.2,3,3,1.3,2.1,1.688,5.927,3,8l2,1v2l4,3v2c2.935,4.12,7.1,5.547,8,12-1.652,1.463-2.436,3.417-3,6-3.577.927-4.446,3-8,4-0.562,2.689-5.087,12.187-5,13,0.292,2.73,3.255,5.774,4,9l9,5v4l-6,1q-0.5-1.5-1-3c-3.665,1.039-4.883-.98-9-2v1l3,10h-1c-1.266,4.4-4.76,4.908-7,8v2l-3,2c-0.892,1.276-1.109,3.721-2,5l-2,1c-2.29,2.752-2.862,4.892-3,10,1.331,1.605,1.628,7.844,2,10h3l6,9h-2c-1.135,1.068-.047.376-2,1-0.913,3.208-1.117,2.856-5,3-0.056-2.507-.79-3.564-1-5h1a10.452,10.452,0,0,0,1-4h-4c-1.783-4.395-2.5-6.987-9-7-1.564-1.739-2.656-1.87-6-2-1.618,2.723-2.7,2.46-3,7-1.532,1.778-1.1,6.672-1,10,3.472,2.588,2.987,6.571,8,8,1.167,1.02,1.648.864,4,1,0.733,5.485.383,2.888-2,7v2l-3,2c-1.658,2.6-.791,7.551-2,10l-3,2-4,11-8,1c-0.862,1.122.114,0.129-1,1v3h-6c0.705-2.414.718-1.584,0-4-3.063.557-3.3,0.9-6,0q0.5-1.5,1-3c1.01-.5,1.366-1.676,2-2,2.085-1.065,2.055.791,4-1-1.9-1.328-1.6-.976-2-4l5,1c1.275-4.31,4.761-3.266,10-3v-2H794a39.139,39.139,0,0,1-1-8h-2v5c-3.323.139-2.635,1-4,0-4.489-2.639-6.245-7.552-9-12l-2-1v-7c3.154-1.843,3.99-3.895,4-9,4.883-.768,12.758.618,19,1a84.526,84.526,0,0,0,2-17c-6.158-.093-12.055-1.655-17-3-3.474-.945-9.26-0.27-12-1H744v-1h-8v-1l-5-1c-4.236-6.96-9.95-8.143-10-20,1.068-1.135.376-.047,1-2l12-5c-1.135-1.068-.047-0.376-2-1-2.772-2.176-8.013,1.129-11,2-0.63,2.343-1.249,1.654-2,3v2h-1v9c2.363,2.142,3.083,5.349,5,8,1.9,2.634,5.2,4.018,7,7h-9c-1.765-1.742-1.332.041-3-1q-0.5-1-1-2l-10-9v3c2.855,1.564,9.728,9.5,8,12a4.328,4.328,0,0,1-2,2c-0.994.884-1.344,0.543-4,1v1c2.056,1.592,4.346,4.953,3,7-1.105,3.922-12.888,11.7-18,12-1.167-1.02-1.648-.864-4-1-0.958-4.622-1.674-4.5-1-9-2.254.566-2.661,2.423-5,2-1.948-.352-4.826-4.422-6-5h-5q-0.5-1-1-2h-8c0.158-5.875,2.231-5.184,3-10a7.089,7.089,0,0,1-3-3,10.288,10.288,0,0,0,4-4c-2.312-1.528-8.183-9.092-9-12-2.827.15-1.485,1.107-3,0-3-1.813-6.027-6.272-7-10h-4c-1.927-3.808-2.976-5.965-9-6v-2c-5.947-3.9-7.543-15.366-16-16-1.491,2.626-4.453,3.72-6,6q-0.5,2-1,4h-1c-1.511,2.813-1.615,5.113-3,8h-1c-3.265,7.445-2.707,16.713-11,19-1.654,1.613-3.755,1.886-7,2-1.878-2.114-4.634-2.3-7-4-4.128-2.97-3.054-7.169-10-8q-0.5-2.5-1-5l-12-1v-2c-2.951-1.661-6.43-5.338-10-6-0.622-.115-9.175.983-12,1-2.215-4.589-3.2-9.67-10-10-0.289-1.936-.828-6.659-2-8-0.8-4.059-3.144-6.987-7-8-0.348-3.53-1.286-3.961-2-7h2v-2h-7l-3-2-5,1v-1l-13,1c-2.918-1.391-1.041-4.048-7-5v-2h-8v-1a1.752,1.752,0,0,0-2,1,1.872,1.872,0,0,1-2-1c-1.107-.143-5.21.971-8,1-2.675,4.61-8.036,9.691-14,11q-0.5-3.5-1-7h-1c-1.019-3.944,3.083-15.646,4-19V351h1v-8h1v-6h1v-9h1v-4l3-2c0.78-1.538.569-3.929,1-5-3.235-1.859-5.3-4.7-8-7q0.5-3.5,1-7l10-1,1-3c1.443-1.776.531-4.251,2-6,1.135-1.068.047-.376,2-1,0.4-2.329,1.44-7.009,2-9v-6h1l1-5h1q-0.5-3-1-6c4.8-2.989,4.427-6.012,13-6,3.477-3.068,14.078.623,17,2a16.074,16.074,0,0,0-1,6h5c1.65,2.488,3.621,2.236,6,4,3.4,2.523,3,6.58,8,8v-2h2a13.543,13.543,0,0,1,5-4v-1h-1c-0.553-2.374-3.4-7.6-5-9,2.5-4.127,5.765-5.156,7-11h5c0.083-4.416,1.319-7.224,4-9,0.86-.511.527-0.881,1,0,2.64,2.588.92,6.459,3,9,2.192,1.8,7.279.669,11,1,4.77,0.425,11.771,1.074,18,1,1.066,2.877,1.048,7.688,1,12l-7,5h1c3.421,5.647,14.171,5.72,21,5v-4c4.227-2.355,7.053-5.088,7-12-6,.1-8.963-1.051-13-2-0.6-2.407-1.213-1.622-2-3v-2h-1q-0.5-3-1-6l-2-1q-0.5-2.5-1-5l-3-2q-1-3-2-6c-4.169,1.32-1.8,2.741-4,4l-7,1c-1.9-2.709-5.179-3.1-7-6,3.1-1.739,3.976-2.988,4-8-2.659-3.439,1.166-2.251,0-6l-2-1q0.5-2.5,1-5l3,1c0.286-2.567,1.287-6.977,3-8,4.136-2.471,3.7,3.3,6-3,0.99-1.122.685-.824,1-3a13.758,13.758,0,0,1,7,0c1.165,4.327,3.564,4.518,4,10,3.222,0.828,3.458,1.833,8,2q-0.5-3-1-6c0.609-2.1,4.27-2.839,3-7h-1v-2c-0.725-1.263-3.746-1.207-3-4h1c0.755-2.963,1.079-3.2,4-4q0.5-3.5,1-7c3.438-2.048,4.648-3.066,11-3,4.2,4.515,6.3.271,10-1h5l2-2h3l3-4h6c0.96,0.857,3.047,1.128,4,2,3.129,3.534,1.223,6.622,8,7,0.285-2.181.024-1.887,1-3,5.225-5.305,11.038-.247,11-12l-5-1c0.078-4.546,1.132-4.8,2-8l6-1c4.4,0.969,15.391,9.269,16,14C670.919,171.237,671.031,172.492,671,175ZM500,249c-0.942-5.078-2.767-8.017-3-14,2.66-1.426,4.223-2.026,9-2,4.243,3.244,14.014-4.145,20,1,3.964,0.893,7.473,3.468,8,8-1.068,1.135-.376.047-1,2-8.192,3.81-12.928,9.713-25,10C506.253,250.984,504.018,249.777,500,249ZM839,417c-0.806-2.794-.249-2.154-3-3-2.345-2.567-7.081-3.028-12-3v1h-1v1h1c2.354,1.908,3.918.034,7,1C833.329,414.73,836,416.391,839,417Zm40,63,10,1c1.041,5.338,3.573,7.8,4,14l-7,6v4l-6,10-4,1c-0.867.468-3.133,2.541-4,3h-2v1h-2v1h-2v1l-4,1q-0.5,1-1,2h-2l-2,3h-2l-2,3h-2l-2,3h-2l-2,3h-2l-2,3h-2l-3,4a147.362,147.362,0,0,0-19,16l-6,7c-12.745,9.3-23.71,21.2-33,34l-5,4v2l-4,3v2l-3,2v2c-0.848,1.254-3.162,2.742-4,4v2l-2,1c-0.93,1.4-1.073,3.6-2,5l-2,1q-0.5,2-1,4c-2.758,3.947-5.28,1.3-8,3q-1,3-2,6l-3,2v2l-5,4v2l-5,4v2l-5,4v2c-2.026,2.783-4.817,2.969-6,7h-2a33.755,33.755,0,0,1-12,11l-6,2-2,3c-8.979,6.375-16.325,14.327-24,22-3.74,3.739-6.545,9.038-13,10-1.029-1.153-3.136-1.788-4-3v-2l-2-1v-6h-1c-0.931-2.579-1-2.425,0-4,1.288-6.338,6.783-10.7,13-12q0.5-2.5,1-5h2a25.905,25.905,0,0,1,3-3h2c3.068-2.236,4.462-7.227,6-11l12-1q0.5-1,1-2h2c2.247-1.371-.2-1.347,4-2,0.57-2.309,1.376-1.725,2-3q1-5,2-10c1.754-.738,7.723-2.832,9-4,1.068-1.135.376-.047,1-2,4.635-1.121,3.564-2.574,6-4h3c3.243-1.951,7.036-9.5,9-13v-2l2-1c1.323-2.128,1.693-5.838,3-8l2-1q0.5-2.5,1-5l2-1q1-3,2-6c2.144-3.435,5.769-6.526,7-11,3.527-.714,5.375-2.826,8-4h3c6.7-3.007,14.277-9.122,16-17h-5q0.5-2.5,1-5c2.079-1.106,1.783-1.572,5-2,0.862,1.122-.114.129,1,1q-0.5,2-1,4h2l4-6c1.512-.975,2.955.306,4-1,1.468-1.834,1.671-5.9,3-8,1.561-2.468,4.427-4.395,6-7-3.162-3.029-.5-4.11,0-9h4v-2h-2v-6c13.452-5.854,12.289-8,18-21,1.122,0.862.129-.114,1,1,1.244,1.541.341,15.147,1,19a10.22,10.22,0,0,0,4-1c-1.1-2.494-3.591-8.128-2-13h1q0.5-3,1-6h-1c-1.215-2-1.548-1.84-2-5,2.034-2.492-.086-4.8,1-8h1q0.5-2,1-4c4.866-1.136,4.542-1.989,10-1,1.546,4.175,2.069,11.054,3,16,3.735,0.384,4.133.791,5,4,3.938-.318,5.445-1.592,8-3-1.493-1.7-2.521-.847-4-2-0.136-.106-4.763-7.534-5-8-1.523-3-.908-7.62-3-10-1.627-1.451-5.678-2.5-8-3,0.285-2.181.024-1.887,1-3,1.877-1.762,2.189.082,4-1q1-2,2-4l20,1c1.991-3.863,6.526-10.669,12-11,1.167,1.02,1.648.864,4,1C875.619,474.9,878,476.519,879,480Zm-141-2c6.25,1.786,4.99,6.4,8,11,1.134,1.733,2.654,2.152,4,5l6-1v1c1.443,1.323.929,2.127,2,4h1v2l6,5c1.433,2.25-.221,5.109,1,8,0.415,0.982,1.332.389,2,3h4c0.1,0.244,2,3,2,3,0.126,0.507-1.18,2.962,0,5l5,3q-0.5,5-1,10l2,1v6h1c0.8,1.464.691,1.7,1,4-1.757,1.876-1.563,4.684-3,7l-2,1q-0.5,1.5-1,3h-6q-0.5,1-1,2c-2.6,1.575-3.914,1.786-8,2a11.163,11.163,0,0,1-1-4c1.386-1.243,1.613-3.853,3-5,1.991-1.646,4.45-1.993,6-4q0.5-1.5,1-3c1.436-1,1.316.692,3-1-3.048-2.729-4.882-8.462-5-14,1.068-1.135.376-.047,1-2l-5,1a17.711,17.711,0,0,0-8-7c-0.285,2.181-.024,1.887-1,3-1.539-1.337-5.013-1.083-8-1-0.944,4.963-2.907,5.267-9,5-1.233-2.113-2.211-2.205-3-5h5q-0.5-2-1-4l-2-1c-0.526-1.945,1.782-3.307,2-4V505h-6c-0.059-4.172-.733-11.668-3-14-2.829-3.075-5.615-2.057-6-8,5.275,1.239,6.786,2.192,13,1Q737.5,481,738,478Zm22,15h-4a14.13,14.13,0,0,0-3-4,13.189,13.189,0,0,1,2-4c1.237-1.081,2.492-.969,5-1,1.135,1.068.047,0.376,2,1,1.783,3.813,4.934,6.7,7,10q1,3,2,6c2.139,3.165,5.678,3.59,7,8h-1c-1.122.99-.824,0.685-3,1C771.091,505.173,761.518,498.026,760,493Zm76,28q0.5-2.5,1-5c-0.846-.841-1.146-2.163-2-3v1c-1.739,1.564-1.87,2.656-2,6Zm-75,20q-0.5-3-1-6l-4-1c0.285-2.181.024-1.887,1-3,1.122-.99.824-0.685,3-1,2.36,3.8,4.808,3.518,5,10-1.122.862-.129-0.114-1,1h-3Zm21-9,10,2c1.19,2.644,1.9,3.764,2,8a4.328,4.328,0,0,0-2,2c-3.859-1.338-7.008-1.748-9-5C780.907,536.919,781.121,534.527,782,532Zm-22,45q-0.5-1.5-1-3c-3.746.12-7.719,0.866-9,0-0.99-1.122-.685-0.824-1-3,1.728-1.556.82-2.314,2-4,1.126-1.609,3.7-2.463,5-4,4.941,0.9,12.744,4.4,14,9,0.99,1.122.685,0.824,1,3-3.027,1.445-3.514,2.691-8,3C761.878,577.01,762.176,577.315,760,577Z" transform="translate(-447.812 -156)"/>
   </symbol>
   <symbol id="symbol_bronx" x="10" y="0">
     <path id="bronx" data-name="Bronx" class="cls-1" d="M448,6c4.738-.129,15.21-1.348,18,1l8,4c1.336,1.73,2.289,8.054,4,9h23c1.764-4.082,2.853-5.129,9-5,2.3-1.878,6.438-.067,10-1,9.1-2.383,22.164-3.864,32-2,0.439,3.723,1.954,8.646,0,12,0.239,1.25,1.862,1.455,2,2,0.638,2.509-2.291,5.59-3,7,0.127,2.3,2.271,2.151,0,5-1.135,1.068-.047.376-2,1,0.338,3.163,1.686,1.611,0,4-1.167,1.02-1.648.864-4,1v2c4.647,0.48,6.208,2.414,11,3,0.009-3.089-1.151-12.183-1-13,0.538-2.913,5.18-5.962,4-10l-2-2c-1.077-2.3-.926-4.641-1-8,2.079-1.106,1.783-1.572,5-2,2.577,1.922,3.251-.378,7-1v1h1q0.5,5.5,1,11c2.794-.806,2.154-0.249,3-3h3q0.5,2,1,4h1c0.08,0.862-.952,2.931-1,5-5.764,2.522-7.287,5.219-7,14a9.274,9.274,0,0,1,5,6c-1.572,1.419-1.7,2.13-2,5h5V53h5c0.707,3.9,2.246,6.988,6,8,1.237,1.081,2.492.969,5,1v2l8,5q0.5,3,1,6h1c1.346,1.516,3.811,2.406,5,4v2l3,2q-1,3.5-2,7c-4.722-1.079-19.9-10.712-22-14-1.523-2.386.432-6.03-1-9l-2-1c-3.5-3.957-4.124-4.931-12-5q-0.5,3-1,6c0.077,0.261,3,3,3,3q0.5,4.5,1,9h-1v1a21.463,21.463,0,0,0-5-2l-1-3-6-2c0.114-7.454-1.762-5.416-4-9-2.182-3.495,1.608-3.257-4-4-1.249,2.808-1.171,3.5-5,4-3.82-6.148-9.54-1.922-14-6,1.553-1.791,1.457-2.23,0-4-0.764-.977-1.236-1.023-2-2-3.762,1-4.021,2.66-9,3l-1-3c-2.276-2.843.361-4.821-1-7-1.135-1.068-.047-0.376-2-1-0.608-2.388-1.229-1.633-2-3V39h-1c-0.679-1.762-.693-5.459-1-7h-2c1.358,8.885,1.422,20.1,8,24,1.787,1.438,5.283.733,7,2l1,3c2.916,4.651,4.11,4.631,4,13h3V69c2.113-1.233,2.205-2.211,5-3v1c4.433,4.221-.921,7.763,1,11,1.217,1.346,1.8,1.49,4,2v4c2.081,1.175,4.94,2.838,6,5q0.5,2.5,1,5l3,2-1,3h2c1.324,1.185,1.072,2.554,2,4l2,1v6c0.54,1.443,3.172,4.58,4,6v2l9,8q1,3,2,6h2c1.212-2.207,2.295-3,3-6h3c2.32,4.109,7.536,9.877,14,10,2.086-1.888,6.853-.852,9,0-0.9,4.142-2.664,5.857-3,11-2.963-.747-2.493-1.512-6-2v1c1.068,1.135.376,0.047,1,2l5,1v1l22-1q0.5,2.5,1,5l-11,1c-1.627-.423-5.938-2.012-8-2l-9,2-7-4v1h-4v1c-4.1,1.5-8.654,1.913-11,5v2a40.808,40.808,0,0,1-3,3c-4.13,4.131-7.922,3.285-8,12,2.214,1.448,2.661,2.575,3,6-2.967.647-6.176,2.207-8,1-9.075-2.014-15.106-14.356-15-26h-3q0.5,11,1,22h-2c-1.2,2.252-1.766,2.235-2,6,0.99,1.122.685,0.824,1,3,3.278,0.9,2.922,2.223,5,4-0.6,1.969.055,0.868-1,2-1.237,1.081-2.492.969-5,1q-0.5,2-1,4h-6c-1.82-3.026-4.013-3.851-5-8-6.516.421-6.4,4.109-13,5-1.388-1.353-3.19-.918-5-2a31.063,31.063,0,0,0-3-3c-0.191-.045-11.354.966-14,1l1,3c19.335-.335,16.433,4.681,26,13a19.52,19.52,0,0,1-2,9c-6.214,2.516-14.493,2.695-18,8-4.886-1.966-8.24-3.866-15-4-3.847,4-11.231,3.862-13,10-3.242,3.635-2.112,14.329-2,21-2.522,1.353-3.507,1.979-8,2v2h3c0.81,3.993,2.476,7.35,1,11l-3,4v13c-0.886,2.474-3.113,4.309-4,8-4.563.827-8.474,1.895-14,2-1.406-3.817-1.053-10.644-1-16,2.019-1.033,6.744-3.227,8-5-1.792-.953-1.6-1.353-4-2q-0.5-4-1-8l-4-1q-0.5-4.5-1-9h-5c-2.112-3.439-3.04-1.971-6-4-2.353-1.613-3.364-4.508-5-7l-2-1c-0.977-1.812-1.027-6.171-2-8l-2-1-1-4-2-1-1-4-4-3c-1.071-1.948.745-2.087-1-4-1.135-1.068-.047-0.376-2-1-1.255-5.549-6.094-8.378-8-13q-1-5-2-10h1v-8c-1.789-6.691-.891-20.966,0-25,0.778-3.524-1.027-8.025-1-10h1v-9c1.2-4.517,3.047-21.628-1-26-5.425-6.284-14.1-.007-21,1-1.275-4.31-4.761-3.266-10-3,0.311-16.14-3.481-27.76-7-40q-0.5-10.5-1-21-2.5-7.5-5-15a111.1,111.1,0,0,0,26-3h10c5.234-1.419,13.685-1.575,19-3h10c5.468-1.483,14.527-.979,20-3l-1-3h1a33.255,33.255,0,0,0,1-4h-1V15l2-3V11l-2-1V4c1.942-.518,3.514-2.48,5-2V3C447.99,4.122,447.685,3.824,448,6ZM602,37c6.609,0.053,8.312,2.656,13,4q-0.5,4.5-1,9l3,2q0.5,3.5,1,7c3.523,0.876,3.86,1.719,4,6h-1c-1.413-1.64-4.938-2.171-6-4-2.44-4.2,2.168-4.955-5-6C609.438,46.839,602.725,46.438,602,37Z" transform="translate(-357 -1.906)"/>
   </symbol>
   <symbol id="symbol_brooklyn" x="81" y="381">
     <path id="Brooklyn_Shape" data-name="Brooklyn Shape" class="cls-1" d="M510,386c0.853,3.151,2.1,2.867,3,6,3.569,0.972,4.239,3.309,7,5-0.865,2.665-1.624,3.042-3,5h-1c-1.851,3.7-.262,11.767,3,14v1h1v-2c-3.645-3.237-1.512-11.219-1-14l4-1q0.5,1,1,2c1.215,0.724.349-.85,1-1,1.309-1.547.981,1.937,1,2,1.6,1.931.576,6.116,2,8,1.015,1.342,2.472.038,4,1,2.608,1.641,4.242,5.4,5,9l10,1a4.219,4.219,0,0,1,4-1c3.678,1.043,3.18,3.26,8,4v2c2.522,1.353,3.507,1.979,8,2,1.237,1.081,2.492.969,5,1,1.353,5.919,2.2,3.351,6,6a31.231,31.231,0,0,1,3,3v2c1.863,2.274,8.867,5.609,13,6,2.032-2.273,2.636-.607,5-2,0.394-.232,4.683-5.486,5-6,1.528-2.482.842-5.08,2-8h1v-3c0.155-.354,2.8-3.605,3-4q0.5-2.5,1-5a27.662,27.662,0,0,1,7-9q0.5-1,1-2h5l13,18h5c0.674,2.713,1.28,2.3,2,5h4l8,12,3-1c1.57,0.888,8.411,11.526,9,14-3.02.865-2.56,0.563-3,4,4.109,3.066-.367,4.633-1,10,1.094,0.37,5.711.389,7,1l2,3h5l4,5q-0.5,2.5-1,5c0.617,2.571,1.964,3.488,2,8l-8,4c-0.484-.356-0.273-1.909-2-3-0.354,3.045-.145,2.657-2,4-2.106,1.972-7.707,2.416-11,3-2.2-3.612-10.781-9.4-16-10v1h1v1c5.1,2.17,10.414,5.927,15,9q0.5,1,1,2h2c3.515,2,9.351,5.21,10,10-2.763,1.659-4.225,4.376-5,8l-16-7c-0.289-.178-2.391-2.768-3-3l-10-1c-3.395-1.376-1.16-2.468-7-3v1h1v1c2.162,0.985,4.114,3.3,6,4h8c0.116,0.042,3.752,2.863,4,3h2q0.5,1,1,2h3v1l10,3c-1.215,11.97-8.141,21.765-6,34-17.267,3.355-32.539-.4-50-1q0.5,1.5,1,3l25,2v1l7,1v1l13-1c0.671,0.249,2.633,2.76,3,3h2c4.327,2.86,8.439,7.409,14,9v4l-6,1c-0.678,6.987-5.006,8.665-8,13l-6-1v-2c-3.311-2-5.2-6.166-8-8l-5-1c-3.457-1.535-3.171-2.8-9-3v1h2c2.873,2.712,7.617,2.72,11,5,3.927,2.647,4.892,8.452,10,10v2c-2.537.62-2.176,1.679-3,2-3.454,1.344-5.589-1.108-9,0,0.911,3.225,3.258,4.455,3,5h-1c-1.7,1.641-7.75,2.856-9,2l-7-2c-1.075-5.423-1.516-6.369-1-12l-3-2v3c0.836,1.233.119,6.148,0,10a55.5,55.5,0,0,0,8,4v1c11.21,3.781,19.635-8.723,25-12,2.457-1.5,5.295-.582,8-2q0.5-1,1-2l4-1q0.5-1,1-2h2c2.475-1.711,4.412-6.056,8-4,4.781,1.369,6.9,5.9,10,9l15,14,6,7a59.143,59.143,0,0,1-1,12c-1.856,1.077-2.462,2.886-4,4-5.682,4.115-11.572,7.71-16,13l-7-1q-0.5-1-1-2c-2.628-1.106-7.1-.282-9-1v-3c2.9-.4,3.137-1.362,6,0q0.5,1,1,2l3-1c0.516-3.341.526-2.658,0-6-5.187-1.478-6.018-6.075-12-7q-0.5,1.5-1,3c-1.744,3.273-1.943.482-4,2-1.355,1-.045,2.468-1,4-1.573,2.523-3.914,2.355-5,6,2.767,1.412,4.474,2.049,5,6a11.163,11.163,0,0,1-4,1c-2.847-4.048-4.5-1.348-7-3,1.068-1.135.376-.047,1-2l-5-1q0.5-5,1-10l-2-1v-2h-1v-2c-0.831-1.384-1.342-.631-2-3-4.063-1.179-3.484-3.551-6-5h-3v-1h-3l-3-2h-1v1c-6.59,1.992-2.4,5.851-9,7-2.128-2.063-6.385-3.6-10-4v2l5,1q0.5,1,1,2l10,1v1l6,1c0.116,0.051,3.914,2.966,4,3,4.915,1.97,6.159-.566,9,4,2.712,2.867,1.167,7.263,1,13-3.287,1.748-6.255,3.489-11,4-1.532-2.748-3.037-4.509-7-5,0.607-2.982,1.865-4.587,3-7h-2c-1.377,3.114-1.47,3.8-6,4-1.338-3.234-2.27-5.97-6-7v2h2c1.935,8.19,10.223,8.458,11,18-1.068,1.135-.376.047-1,2-1.813,1.05-2.484,2.984-4,4l-9,3c-0.075.034-1.9,1.946-2,2h-2q-0.5,1-1,2l-9,3v2l10-3c0.7-.367,2.1-2.648,3-3h5c5.667-2.133,9.92-5.494,17-7,1.3,1.965,3.967,3.822,6,5-0.6,1.969.055,0.868-1,2-2,6.438-7.348,5.126-13,8q-0.5,1-1,2h-3q-0.5,1-1,2h-2l-5,6h-2c-0.836.561-1.986,2.514-3,3h-3c-1.208.653-2.833,3.224-4,4h-2q-0.5,1-1,2h-2c-1.258.838-2.746,3.151-4,4h-2l-2,3h-2l-8,9h-2q-0.5,1-1,2c-2.007,1.27-6.064,1.706-8,3l-3,4c-9.237,6.19-25.25,10.613-40,8-0.566-1.061-1.564-1.272-2-2v-2h-1c-0.758-1.823-.513-3.757-1-5l8-7q0.5-1,1-2l12-2v-1h3l3-2h5c1.039-.454.374-1.306,3-2,0.882-3.317,4.392-5.878,2-9-0.862,1.122.114,0.129-1,1-1.1,2.452-1.788,3.227-2,7h-5c-0.672-1.218-2.575-2.092-3-3-0.73-1.559,1.01-4.99,1-5h-2a41.328,41.328,0,0,1-3,10l-7,1c-1.353-2.522-1.979-3.507-2-8,1.965-1.3,3.822-3.967,5-6-1.122-.862-0.129.114-1-1-2.689,1.859-1.682,3.348-6,4q-0.5-3-1-6a4.328,4.328,0,0,1-2-2c-1.4.7-2.274,2.9-5,2l-4-4h-7v-1l-14-1-18,3c-2.054.693-5.814,3.446-10,2l-2-2c-2.395-1.214-4.4-.877-7-2l-2-2-6-1-3-4-7-6-2-6-2-1c-1.331-2.159-.924-4.506-2-7l-2-2q-1-6-2-12h-1v-7c-0.411-1.542-2.437-13.37-2-15h1q0.5-2.5,1-5c2.794-.806,2.154-0.249,3-3h-3a29.276,29.276,0,0,1,1-7h7c-1.291-4.732-2.082-4.3-1-10-2.886-.838-2.161-1.5-4-3l4-14,6-1,1-2h-1v-1h-4q0.5-2.5,1-5l12-5c-0.606-2.423-1.038-2.213-2-4h1v-1h3a5.638,5.638,0,0,0-2-3q0.5-3,1-6h-2c-0.489,2.384-1.151,3.145-2,5-2.308-1.575-1.847-3.017-5-4,0.327,8.211-.823,14.361-7,16-1.122.99-.824,0.685-3,1v-2h2c1.853-3.106,2.967-3.4,3-9l-3-1c-1.171-.831-7.393-1.091-12-1-3.28-5.328-6.982-5.674-7-15,2.244-1.934,3.7-5.154,5-8l4,1v-4l-2-1c-0.855-2.758,4.316-13.174,5-16q-1-8-2-16h-1c-1.228-4.552,2.253-15.692,3-19,9.173-.222,9-3.65,14-7h2v-1c1.872-1.079,2.694-.512,4-2,3.762,1,4.021,2.66,9,3,1.953-3.275,3.029-4,3-10-8.46-7.541-6.413-35.125-9-49-2.207-1.212-3-2.3-6-3-1.139-5.145-3.728-6.441-4-13h3v-3c2.516-1.768,5.355-5.67,8-8l1-2h10c2.959,3.644,4.46-1.048,10,1,2.583,0.955,5.39,6.232,7,7C494.02,388.964,509.481,386.075,510,386ZM704,494h8q0.5,1.5,1,3c4.029,4.087-1.841,7.81,0,13,0.461,1.3,1.5-.2,2,4-1.068,1.135-.376.047-1,2l3-1v1c2.694,0.677,5.3.432,7,2,1.068,1.135.376,0.047,1,2,0.99,1.122.685,0.824,1,3-3.844,1.016-8.9,3.138-11,6v2l-4,3c-0.593.821-6,10-6,10h-5v-4l3-1c-0.853-3.151-2.1-2.867-3-6l-5,1v-7l4-2c2.9-4.356-2.746-6.29,6-7v-2h5v-4c-5,1.082-6.8,4.207-12,5-1.662-3.113-2.077-6.48-2-12,1.017-.8,1.069-2.254,2-3h2C702.192,500.319,703.345,497.261,704,494Zm24,20h-5c-2.679-4.09-5.8-2.851-6-10,4.042-2.535,3.849-6.261,10-7C728.493,501.059,728.054,508.379,728,514Zm-37,22,3,1c1.437,3.133,2.722,4.4,3,9a16.5,16.5,0,0,0-6,7c-1.836,4.99,2.987,5.915-3,8-1.326,1.158-3.337,1.029-6,1-2.407-5.147-6.207-8.173-7-15,4.23-3.856,7.28-11.857,8-19,3.116-.795,2.9-1.7,7-2,1.106,2.079,1.572,1.783,2,5C690.919,532.237,691.031,533.492,691,536Zm51-3c0.627,2.349,1.246,1.651,2,3v2h1c1.028,2.845-.855,7.736-1,9-0.306,2.675,1.538,1.786,2,3v4h-2c-1.233,2.113-2.211,2.205-3,5-6.183.884-5.165-1.485-12-2v-4h2q0.5-4,1-8c-0.816-2.407-3.152-4.026-4-7,2.233-.832,5.437-1.029,9-1,0.285-2.181.024-1.887,1-3C739.167,532.98,739.648,533.136,742,533Zm8,1h3q-0.5,1-1,2l4,1c1.249,0.916,1.758,2.974,3,4-0.6,1.969.055,0.868-1,2-1.652,2.73-3.865,2.918-6,5-1.969-.6-0.868.055-2-1-1.337-1.539-1.083-5.013-1-8-1.969-.6-0.868.055-2-1C750.02,537.135,749.56,537.437,750,534Zm-30,23h-5c-0.653-3.141-2.152-10.287-1-12,1.091-4.312,3.556-4.225,9-4,1.057,1.272,2.032,1.528,3,3,1.091,1.152,3.114,5.01,2,8l-2,1q0.5,3.5,1,7l-3,1v1c-1.181.777-.819-0.663-1-1C721.011,559.811,720.722,559.606,720,557Zm-25,0c6.056,0.887,4.035,4.48,10,6-0.2-3.917-.408-2.638,0-6h3q0.5,2.5,1,5c-1.792.953-1.6,1.353-4,2v4h-1c-1.739-3.1-2.988-3.976-8-4A34.52,34.52,0,0,1,695,557Zm28,9c6-.1,8.963,1.051,13,2a11.163,11.163,0,0,1,1,4c-2.794,2.659-2.721,6.673-7,8-1.778,1.532-6.672,1.1-10,1-2.965-4.535-4.954-1.743-5-10,1.068-1.135.376-.047,1-2C717.686,568.307,721.616,567.266,723,566Zm-11,4v4c-1.122.862-.129-0.114-1,1l-4-1C707.813,570.752,708.31,570.421,712,570Zm-3,7c1.138,4.891,4.188,4.861,5,10h-1c-1.135-1.068-.047-0.376-2-1-0.755-2.963-1.079-3.2-4-4-0.489-2.384-1.151-3.145-2-5h4Zm19,15c1.247,4.166,4.028,3.928,5,6q-0.5,10.5-1,21c-2.913-.83-7.96-5.513-9-8-1.321-3.158.211-4.573-2-7-1.816,2.367-.312,2.666-3,1-2.843-2.459-4.008-5.551-4-11a8.391,8.391,0,0,0,2-3C718.877,592.066,723.688,592.048,728,592Zm-95,24c7.944-.051,17.184,5.141,18,12-7.46-1.28-12.03-5.059-19-6Q632.5,619,633,616Zm21,25h2c-0.662,2.4-.326,1.8-2,3-0.862,1.122.114,0.129-1,1v-2C654.068,641.865,653.376,642.953,654,641Zm2,2h2c-0.862,1.122.114,0.129-1,1v1C655.932,643.865,656.624,644.953,656,643Zm-1,2c1.068,1.135.376,0.047,1,2h-1v-2Z" transform="translate(-428 -380)"/>
   </symbol>
   <symbol id="symbol_staten_island" x="-140" y="650">
     <path id="staten_island" data-name="StatenIsland" class="cls-1" d="M421,683c4.407,0.873,9.707,3.9,12,7,0.809,1.092.73,3.128,2,4,2.346,1.611,5.184.8,8,2l2,2c3.99,1.444,8.171-.709,10,3v8c-1.67,2.2.157,5.792-1,9l-3,4v3h-1q-0.5,6-1,12c-2.737,8.762-5.233,19.606-8,28v5h-1v4c-0.111.279-2.792,3.629-3,4v2l-2,1-1,4h-1l1,2c0.584,9.48,2.25,12.953-4,16q1,5.5,2,11l-2,2v3h-1c-1.065,3.423-.5,8.4-1,11a21.454,21.454,0,0,1-5,2q-0.5,3.5-1,7h1v5c-0.644.372-12.94,12.872-13,13v4c0.828,1.086.911,6.766,0,10h-1q-0.5,9-1,18l-5,7a13.182,13.182,0,0,0-5-1c-1.458-2.471-2.471-2.21-3-6,1.068-1.135.376-.047,1-2l8-3c-0.046-7.173,1.733-9.61,2-16-2.1-1.365-1.559-2.844-3-4-2.112-1.7-4.29-1.969-6-4-1.969.6-.868-0.055-2,1-4.7,1.255-7.942,7.006-8,13,1.64,1.817,1.01,4.342,2,7l2,3c1.283,5.085-5.52,11.616-7,15v3h-1c-1.369,3.466-1.1,7.162-3,10l-2,1c-0.8.875-2.383,2.142-3,3v2l-3,2v5c0.99,1.122.685,0.824,1,3-2.109,1.25-3.152,3.88-5,5h-3a38.422,38.422,0,0,0-3,3v2l-5,6h-2c-2.14,1.239-4.54,2.868-7,4v14c-0.942,3.255-2.521,6.836-3,11l-5,1v-1h-8v1l-6,1-2,6h-1q0.5,4.5,1,9l-2,1v3h-1v8c-0.667.33-1.333,0.67-2,1a69.235,69.235,0,0,0-4,7c-11.641.09-16.544,5.09-20,13-1.985,4.54.192,8.19-5,10-2.509,2.8-7.99,3.8-13,4-3.24-4.6-10.884-5.41-14-10-3.259-4.8-2.339-10.19-3-18-0.166-1.96-2.156-4.24-1-7,0.667-.33,1.333-0.67,2-1a16.476,16.476,0,0,0,3-9l4-1v-3l-3-1q-2.5-6-5-12c-0.032-.061-1.981-1.958-2-2v-3c-0.7-1.7-3.548-7.316-5-8h-4c-1.122-.99-0.824-0.685-3-1v-4c-2.7-1.507-3.751-4.217-6-6l-3-1v-9c2.713-.674,2.3-1.28,5-2,1.156-6.724,7.382-22.913,12-26,2.4-2.208,5.633-1.524,9-3,2.945-1.291,4.545-4,8-5q0.5-6,1-12l-2-2v-3c-0.092-.209-2.911-3.8-3-4q-1-4.5-2-9h-1v-8l-2-1c-1.967-2.242-4.013-3.771-5-7,2.4-2.023,3.407-6.211,5-9h-1c-1.255-5.6-5.353-10.022-7-15q0.5-11,1-22h-4c-2.82-5.008-7.952-8.41-11-13-2.808-4.229-3.343-9.725-7-13,0.953-1.792,1.353-1.6,2-4-2.729-1.917-2.191-4.1-4-7l-2-1-1-4c-0.239-.448-2.821-3.6-3-4-1.088-2.45-.671-4.864-2-7-2.025-3.255-3.547-2.286-4-8,4.589-5.433,2.924-20.509,7-27,3.564-5.675,11.037-11.864,18-14h23v-1h4v-1h12l3-4h2l2-3,4-1,9-10h2c0.812-.543,1.989-2.579,3-3h4c4.015-1.624,6.55-5.718,11-7l3-9c4.1-1.105,5.305-4.077,8-6h2l3-4,9-2c2.626-1.048,4.543-3.168,8-4,2.085-7.811,9.948-8.232,16-12l1-2,4-1c0.261-.161,2.423-2.8,3-3l8,1c10.849,4.795,12.414,21.791,19,31C410.673,675.136,419.027,676.129,421,683Z" transform="translate(-219 -638)"/>
   </symbol>
</svg>
